HIERARCHY
ROOT SpineBase
{
  OFFSET 0.000000 0.000000 0.000000
  CHANNELS 6 Xposition Yposition Zposition Zrotation Xrotation Yrotation
  JOINT SpineMid
  {
    OFFSET -0.000000 32.849482 0.000000
    CHANNELS 3 Zrotation Xrotation Yrotation
    JOINT SpineShoulder
    {
      OFFSET 0.230261 24.292466 -0.820938
      CHANNELS 3 Zrotation Xrotation Yrotation
      JOINT Neck
      {
        OFFSET 0.168177 7.996081 -0.613139
        CHANNELS 3 Zrotation Xrotation Yrotation
        JOINT Head
        {
          OFFSET 5.382585 11.969317 5.467308
          CHANNELS 3 Zrotation Xrotation Yrotation
          End Site
          {
            OFFSET 0 0 0
          }
        }
      }
      JOINT ShoulderLeft
      {
        OFFSET -3.967767 -4.626819 -15.694590
        CHANNELS 3 Zrotation Xrotation Yrotation
        JOINT ElbowLeft
        {
          OFFSET -4.150946 -25.762433 -8.085397
          CHANNELS 3 Zrotation Xrotation Yrotation
          JOINT WristLeft
          {
            OFFSET 4.743464 -25.882170 -3.114674
            CHANNELS 3 Zrotation Xrotation Yrotation
            JOINT HandLeft
            {
              OFFSET 0.426372 -7.685366 1.958646
              CHANNELS 3 Zrotation Xrotation Yrotation
              JOINT HandTipLeft
              {
                OFFSET 0.187226 -6.635602 1.901412
                CHANNELS 3 Zrotation Xrotation Yrotation
                End Site
                {
                  OFFSET 0 0 0
                }
              }
              JOINT ThumbLeft
              {
                OFFSET 3.306804 2.504455 2.960555
                CHANNELS 3 Zrotation Xrotation Yrotation
                End Site
                {
                  OFFSET 0 0 0
                }
              }
            }
          }
        }
      }
      JOINT ShoulderRight
      {
        OFFSET 5.671016 -7.956835 12.912441
        CHANNELS 3 Zrotation Xrotation Yrotation
        JOINT ElbowRight
        {
          OFFSET 0.898865 -26.235525 4.024358
          CHANNELS 3 Zrotation Xrotation Yrotation
          JOINT WristRight
          {
            OFFSET -0.441702 -25.302425 6.027990
            CHANNELS 3 Zrotation Xrotation Yrotation
            JOINT HandRight
            {
              OFFSET -1.583261 -6.034669 2.142692
              CHANNELS 3 Zrotation Xrotation Yrotation
              JOINT HandTipRight
              {
                OFFSET 0.059129 -4.451224 -1.192651
                CHANNELS 3 Zrotation Xrotation Yrotation
                End Site
                {
                  OFFSET 0 0 0
                }
              }
              JOINT ThumbRight
              {
                OFFSET 1.839803 -1.267696 -2.818665
                CHANNELS 3 Zrotation Xrotation Yrotation
                End Site
                {
                  OFFSET 0 0 0
                }
              }
            }
          }
        }
      }
    }
  }
  JOINT HipLeft
  {
    OFFSET -1.226503 0.754432 -9.908469
    CHANNELS 3 Zrotation Xrotation Yrotation
    JOINT KneeLeft
    {
      OFFSET -9.492817 -32.469711 0.740936
      CHANNELS 3 Zrotation Xrotation Yrotation
      JOINT AnkleLeft
      {
        OFFSET -9.970505 -32.442533 3.398166
        CHANNELS 3 Zrotation Xrotation Yrotation
        JOINT FootLeft
        {
          OFFSET 10.674974 -4.779555 -6.472013
          CHANNELS 3 Zrotation Xrotation Yrotation
          End Site
          {
            OFFSET 0 0 0
          }
        }
      }
    }
  }
  JOINT HipRight
  {
    OFFSET 3.454358 0.281023 2.395935
    CHANNELS 3 Zrotation Xrotation Yrotation
    JOINT KneeRight
    {
      OFFSET -7.805668 -34.968849 8.690879
      CHANNELS 3 Zrotation Xrotation Yrotation
      JOINT AnkleRight
      {
        OFFSET -12.156780 -32.134114 3.529537
        CHANNELS 3 Zrotation Xrotation Yrotation
        JOINT FootRight
        {
          OFFSET 9.992016 -5.076357 -6.248737
          CHANNELS 3 Zrotation Xrotation Yrotation
          End Site
          {
            OFFSET 0 0 0
          }
        }
      }
    }
  }
}
MOTION
Frames: 13
Frame Time: 0.033333
-103.893714 73.431096 341.069926 -0.160004 -2.715719 -67.682689 -0.012533 -0.037778 67.698840 -0.168874 0.032186 0.013293 -2.283910 -3.544153 4.017883 0.000000 0.000000 0.000000 -2.849177 2.193025 1.185693 1.746346 2.591151 -0.484688 -4.156068 4.347680 -1.556553 10.536687 -0.276104 3.288505 0.000000 0.000000 0.000000 0.000000 0.000000 0.000000 2.473743 1.832007 0.173165 9.764217 22.031563 -0.251057 16.075487 10.261979 -0.430345 -24.378160 -23.954392 -8.212237 0.000000 0.000000 0.000000 0.000000 0.000000 0.000000 -3.366095 0.470536 67.526141 4.162609 -5.093460 2.082591 -3.614152 6.234429 2.863276 0.000000 0.000000 0.000000 -5.071940 5.143687 67.636381 -2.284714 -11.689626 3.134182 1.210684 10.526918 0.956316 0.000000 0.000000 0.000000
-103.979715 73.506827 341.219256 -0.272251 -2.469671 -66.972315 -0.058589 -0.063111 66.979422 -0.190630 0.030790 0.001983 -2.350895 -5.197788 4.747472 0.000000 0.000000 0.000000 -3.114376 1.964801 1.333598 2.310536 3.251764 -0.489377 -3.721673 3.610822 -1.607647 9.721051 0.878557 3.026566 0.000000 0.000000 0.000000 0.000000 0.000000 0.000000 3.046087 3.474505 0.271115 10.461592 22.171098 -0.210209 13.828970 10.161089 -1.966719 -24.704446 -25.702110 -7.485505 0.000000 0.000000 0.000000 0.000000 0.000000 0.000000 -3.149584 1.640043 66.701174 3.257254 -5.614990 2.252762 -3.831929 6.590961 3.748790 0.000000 0.000000 0.000000 -4.982546 6.098289 67.009490 -2.657415 -12.983303 3.414848 0.781021 11.630574 1.556399 0.000000 0.000000 0.000000
-104.090221 73.588458 341.406272 -0.432665 -2.241995 -66.193223 -0.213167 0.012294 66.189210 -0.199901 0.074222 -0.011017 -2.658259 -7.033671 5.570974 0.000000 0.000000 0.000000 -3.340840 1.233066 1.497072 2.749135 4.440361 -0.487662 -4.256725 2.116778 -2.045963 9.674611 2.371546 2.966920 0.000000 0.000000 0.000000 0.000000 0.000000 0.000000 3.659063 4.775624 0.376539 10.634184 22.782231 -0.271146 11.990678 9.139819 -2.859329 -23.978839 -26.711540 -6.607704 0.000000 0.000000 0.000000 0.000000 0.000000 0.000000 -2.758283 3.073091 65.822514 1.998753 -6.066260 2.363885 -3.934604 6.859778 4.516567 0.000000 0.000000 0.000000 -4.813088 7.127930 66.332569 -3.099134 -14.135627 3.633622 0.400297 12.579939 2.064554 0.000000 0.000000 0.000000
-104.303602 73.685538 341.684853 -0.728938 -1.830649 -65.316368 -0.244292 0.067359 65.296089 -0.179660 0.083687 -0.027068 -2.832707 -9.275985 6.539916 0.000000 0.000000 0.000000 -3.688514 0.565014 1.711441 3.182323 5.738967 -0.456859 -3.703009 1.897063 -2.175452 8.985850 4.298711 2.822698 0.000000 0.000000 0.000000 0.000000 0.000000 0.000000 4.038509 6.101268 0.457716 10.352925 22.820268 -0.237633 11.085176 8.903776 -3.660012 -23.506518 -27.099351 -5.856780 0.000000 0.000000 0.000000 0.000000 0.000000 0.000000 -1.883235 4.878895 64.852822 0.190843 -6.460323 2.399966 -3.959789 7.191468 5.584943 0.000000 0.000000 0.000000 -4.395982 8.281359 65.565060 -3.762924 -15.017828 3.677609 0.059331 13.312040 2.988128 0.000000 0.000000 0.000000
-104.516827 73.674663 342.582141 -1.086184 -1.829259 -63.687962 -0.302431 0.117359 63.651069 -0.151279 0.121838 -0.041172 -2.710472 -11.381886 7.549043 0.000000 0.000000 0.000000 -4.066696 0.715648 1.921184 3.492627 6.467758 -0.354887 -2.228677 1.763637 -2.067969 7.982039 6.657865 2.564089 0.000000 0.000000 0.000000 0.000000 0.000000 0.000000 4.341525 7.215808 0.496570 9.548191 23.516329 -0.362891 9.634482 8.740107 -4.958400 -23.442658 -29.362354 -4.757569 0.000000 0.000000 0.000000 0.000000 0.000000 0.000000 -2.261452 7.410831 62.852738 -1.550735 -7.829668 2.717050 -4.108757 7.356480 6.968683 0.000000 0.000000 0.000000 -4.658743 9.794720 63.959841 -4.291498 -16.024919 3.710389 -0.429931 13.735242 4.329972 0.000000 0.000000 0.000000
-104.717665 73.573017 343.923720 -1.522552 -2.123596 -61.789408 -0.388530 0.134722 61.730913 -0.143241 0.174492 -0.057981 -2.156353 -13.195848 8.485422 0.000000 0.000000 0.000000 -4.514892 0.602981 2.291806 3.925823 8.140999 -0.296450 -0.108462 0.946044 -1.888400 6.901960 7.251371 2.213139 0.000000 0.000000 0.000000 0.000000 0.000000 0.000000 4.782385 7.811608 0.514286 8.732523 24.996616 -0.628456 8.522805 10.009237 -6.960537 -18.957837 -30.885226 -1.895987 0.000000 0.000000 0.000000 0.000000 0.000000 0.000000 -3.422362 10.519486 60.442910 -2.928794 -9.947971 3.262079 -4.499576 7.340748 8.143110 0.000000 0.000000 0.000000 -5.350254 11.549496 62.034114 -4.681665 -17.012834 3.710207 -0.898215 13.727535 5.571524 0.000000 0.000000 0.000000
-104.888113 73.413609 345.509281 -1.916167 -2.609600 -59.710515 -0.421292 0.195012 59.630490 -0.093697 0.209639 -0.065145 -1.613456 -14.524877 9.277116 0.000000 0.000000 0.000000 -5.131642 0.428875 2.713603 5.152003 10.292203 -0.404378 2.575376 0.787442 -1.155526 6.108015 7.142698 1.915553 0.000000 0.000000 0.000000 0.000000 0.000000 0.000000 5.016317 8.433620 0.494181 6.016886 24.856482 -0.817804 8.099755 15.461846 -10.444728 -13.134779 -33.308620 2.820616 0.000000 0.000000 0.000000 0.000000 0.000000 0.000000 -5.020731 13.706628 57.850439 -4.391606 -12.975363 3.927592 -4.587773 7.934505 9.800189 0.000000 0.000000 0.000000 -6.250954 13.464487 59.923178 -5.169081 -17.872949 3.582675 -1.447521 13.578301 7.510741 0.000000 0.000000 0.000000
-105.048987 73.246432 347.142913 -2.143169 -3.183545 -57.389319 -0.395344 0.284602 57.293232 -0.039941 0.221097 -0.061971 -1.362547 -15.495746 9.991443 0.000000 0.000000 0.000000 -5.931668 0.163295 3.150297 6.928243 12.542892 -0.724652 5.052929 1.534778 -0.174368 5.472760 5.271932 1.743111 0.000000 0.000000 0.000000 0.000000 0.000000 0.000000 4.688466 8.263950 0.418233 6.671754 29.758603 -1.270983 5.735602 12.275704 -11.442354 -7.653557 -32.257958 6.338413 0.000000 0.000000 0.000000 0.000000 0.000000 0.000000 -6.719964 16.295701 55.118300 -4.883751 -15.790271 4.625146 -4.984616 8.561507 11.675328 0.000000 0.000000 0.000000 -7.188498 15.253437 57.550369 -5.590843 -18.589452 3.406698 -2.003274 13.345582 9.729414 0.000000 0.000000 0.000000
-105.140689 73.106048 348.655869 -2.341132 -3.814311 -55.241909 -0.365479 0.340250 55.127658 0.075141 0.220549 -0.055513 -0.978274 -16.091716 10.506520 0.000000 0.000000 0.000000 -6.674123 0.148228 3.541673 8.873126 14.344148 -1.144970 7.237460 1.436489 0.861860 4.959029 4.727044 1.562224 0.000000 0.000000 0.000000 0.000000 0.000000 0.000000 3.754265 9.447763 0.331639 9.712552 34.647462 -1.662141 -2.240851 1.251653 -13.405643 1.543483 -25.743146 10.546686 0.000000 0.000000 0.000000 0.000000 0.000000 0.000000 -8.372769 18.342447 52.694337 -4.931735 -18.726561 5.387134 -5.165424 9.711787 13.451953 0.000000 0.000000 0.000000 -8.148634 16.874032 55.338214 -5.507247 -19.315556 3.429773 -2.799690 13.234414 11.906779 0.000000 0.000000 0.000000
-105.227705 73.026742 349.822015 -1.830661 -4.281818 -52.665683 -0.305474 0.543990 52.580373 0.021302 0.212729 -0.025476 -0.645529 -17.230657 10.959838 0.000000 0.000000 0.000000 -7.809794 -0.549091 3.830391 11.761983 16.368244 -2.019435 8.729743 1.999900 2.103087 4.002570 2.476978 1.403149 0.000000 0.000000 0.000000 0.000000 0.000000 0.000000 0.710114 11.684523 0.265306 17.722877 37.529686 -1.528019 -15.765320 -10.144576 -20.046466 12.259830 -16.279875 13.143713 0.000000 0.000000 0.000000 0.000000 0.000000 0.000000 -10.048132 19.098501 49.891625 -4.893445 -21.557648 5.976003 -4.918798 11.356092 15.819869 0.000000 0.000000 0.000000 -8.798850 17.580064 52.640646 -5.123203 -19.666592 3.531914 -3.969278 13.445776 14.669384 0.000000 0.000000 0.000000
-105.454808 73.001522 350.613338 -1.287103 -4.323892 -49.750222 -0.242908 0.631297 49.700292 0.122886 0.158493 0.005154 0.586792 -19.599393 11.647417 0.000000 0.000000 0.000000 -9.037485 -1.900057 4.103092 14.605547 18.487991 -3.125304 10.937918 4.491984 3.443716 2.792119 1.271485 1.105282 0.000000 0.000000 0.000000 0.000000 0.000000 0.000000 1.588578 16.185360 0.387277 14.799995 32.837259 -0.608551 -23.174856 -19.057731 -22.357388 22.261926 -4.574809 10.892974 0.000000 0.000000 0.000000 0.000000 0.000000 0.000000 -10.894689 19.329817 46.761413 -5.607910 -24.312340 6.140585 -3.859729 13.433610 18.288826 0.000000 0.000000 0.000000 -8.491394 17.881414 49.589047 -4.857498 -19.655878 3.565346 -5.209448 13.855982 17.544903 0.000000 0.000000 0.000000
-105.816764 72.999424 350.939613 -0.032902 -4.044620 -46.608162 -0.045450 0.786013 46.638433 -0.129202 0.107247 0.053107 2.358624 -22.446857 12.289752 0.000000 0.000000 0.000000 -10.107568 -4.177816 4.154821 17.829310 21.681767 -4.665182 12.382694 6.253671 4.739012 1.603223 0.181846 0.809930 0.000000 0.000000 0.000000 0.000000 0.000000 0.000000 4.281956 22.416994 0.226153 10.043868 24.091788 -0.069891 -27.570984 -27.450678 -22.112763 28.872211 6.439013 3.901182 0.000000 0.000000 0.000000 0.000000 0.000000 0.000000 -11.249743 17.537457 43.495617 -6.322491 -25.402166 5.688876 -2.489839 15.315713 20.985720 0.000000 0.000000 0.000000 -7.742014 17.159529 46.309974 -4.713473 -19.273812 3.546918 -6.599937 14.572944 20.526593 0.000000 0.000000 0.000000
-106.362641 73.021464 350.768370 1.613506 -3.616899 -43.589330 0.075682 0.940681 43.715134 -0.398531 0.095308 0.109858 4.554069 -25.039574 12.648598 0.000000 0.000000 0.000000 -11.071772 -7.150117 4.069486 21.205738 25.345261 -6.705620 12.722508 7.460325 5.743969 1.509839 -0.205157 0.936684 0.000000 0.000000 0.000000 0.000000 0.000000 0.000000 9.534194 29.264693 -0.799438 2.545285 12.654577 -1.166889 -26.583552 -33.200460 -18.426040 35.138597 12.350203 -4.599269 0.000000 0.000000 0.000000 0.000000 0.000000 0.000000 -11.430020 14.404503 40.508070 -6.989342 -25.031982 4.887195 -1.038476 16.854120 23.459467 0.000000 0.000000 0.000000 -6.594829 15.858070 43.290219 -5.255319 -18.438576 3.223624 -7.732448 15.331088 23.224177 0.000000 0.000000 0.000000
